<svg xmlns="http://www.w3.org/2000/svg" width="155.35" height="35" viewBox="0 0 155.35 35"><rect class="svg__rect" x="0" y="0" width="88.85" height="35" fill="#31C4F3"/><rect class="svg__rect" x="86.85" y="0" width="68.5" height="35" fill="#389AD5"/><path class="svg__text" d="M13.78 19.42L13.78 19.42L15.27 19.42Q15.27 20.15 15.75 20.55Q16.23 20.95 17.12 20.95L17.12 20.95Q17.90 20.95 18.29 20.63Q18.68 20.32 18.68 19.80L18.68 19.80Q18.68 19.24 18.28 18.94Q17.89 18.63 16.85 18.32Q15.82 18.01 15.21 17.63L15.21 17.63Q14.05 16.90 14.05 15.72L14.05 15.72Q14.05 14.69 14.89 14.02Q15.73 13.35 17.07 13.35L17.07 13.35Q17.96 13.35 18.66 13.68Q19.36 14.01 19.75 14.61Q20.15 15.22 20.15 15.96L20.15 15.96L18.68 15.96Q18.68 15.29 18.26 14.91Q17.84 14.54 17.06 14.54L17.06 14.54Q16.33 14.54 15.93 14.85Q15.53 15.16 15.53 15.71L15.53 15.71Q15.53 16.18 15.96 16.50Q16.40 16.81 17.39 17.10Q18.39 17.40 18.99 17.78Q19.60 18.16 19.88 18.65Q20.16 19.13 20.16 19.79L20.16 19.79Q20.16 20.86 19.34 21.49Q18.52 22.12 17.12 22.12L17.12 22.12Q16.20 22.12 15.42 21.77Q14.64 21.43 14.21 20.83Q13.78 20.22 13.78 19.42ZM25.23 22L23.69 22L26.91 13.47L28.24 13.47L31.47 22L29.92 22L29.22 20.01L25.92 20.01L25.23 22ZM27.57 15.28L26.33 18.82L28.81 18.82L27.57 15.28ZM36.90 22L35.42 22L35.42 13.47L37.34 13.47L39.81 20.01L42.26 13.47L44.18 13.47L44.18 22L42.70 22L42.70 19.19L42.85 15.43L40.33 22L39.27 22L36.75 15.43L36.90 19.19L36.90 22ZM50.40 22L48.92 22L48.92 13.47L52.18 13.47Q53.61 13.47 54.45 14.21Q55.29 14.96 55.29 16.18L55.29 16.18Q55.29 17.44 54.47 18.13Q53.64 18.83 52.16 18.83L52.16 18.83L50.40 18.83L50.40 22ZM50.40 14.66L50.40 17.64L52.18 17.64Q52.97 17.64 53.39 17.27Q53.80 16.90 53.80 16.19L53.80 16.19Q53.80 15.50 53.38 15.09Q52.96 14.68 52.22 14.66L52.22 14.66L50.40 14.66ZM64.93 22L59.57 22L59.57 13.47L61.06 13.47L61.06 20.82L64.93 20.82L64.93 22ZM74.63 22L69.06 22L69.06 13.47L74.59 13.47L74.59 14.66L70.54 14.66L70.54 17.02L74.04 17.02L74.04 18.19L70.54 18.19L70.54 20.82L74.63 20.82L74.63 22Z" fill="#FFFFFF"/><path class="svg__text" d="M102.83 15.48L100.25 15.48L100.25 13.60L107.77 13.60L107.77 15.48L105.20 15.48L105.20 22L102.83 22L102.83 15.48ZM118.89 22L112.14 22L112.14 13.60L118.73 13.60L118.73 15.44L114.50 15.44L114.50 16.85L118.23 16.85L118.23 18.63L114.50 18.63L114.50 20.17L118.89 20.17L118.89 22ZM125.54 22L122.83 22L125.89 17.75L122.96 13.60L125.64 13.60L127.32 16.02L128.97 13.60L131.54 13.60L128.61 17.66L131.74 22L129.00 22L127.26 19.40L125.54 22ZM137.81 15.48L135.23 15.48L135.23 13.60L142.75 13.60L142.75 15.48L140.18 15.48L140.18 22L137.81 22L137.81 15.48Z" fill="#FFFFFF" x="99.85"/></svg>